<svg width="51" height="39" viewBox="0 0 51 39" fill="none" xmlns="http://www.w3.org/2000/svg">
<mask id="mask0_63_132" style="mask-type:alpha" maskUnits="userSpaceOnUse" x="8" y="4" width="34" height="31">
<ellipse cx="25" cy="19.5" rx="17" ry="15.5" fill="#D9D9D9"/>
</mask>
<g mask="url(#mask0_63_132)">
<path d="M20.899 17.9376H8.35962V5.43762C8.35962 5.02322 8.5798 4.62579 8.97174 4.33277C9.36367 4.03974 9.89524 3.87512 10.4495 3.87512H39.7081C40.2624 3.87512 40.7939 4.03974 41.1859 4.33277C41.5778 4.62579 41.798 5.02322 41.798 5.43762V33.5626C41.798 33.977 41.5778 34.3745 41.1859 34.6675C40.7939 34.9605 40.2624 35.1251 39.7081 35.1251H10.4495C9.89524 35.1251 9.36367 34.9605 8.97174 34.6675C8.5798 34.3745 8.35962 33.977 8.35962 33.5626V21.0626H20.899V25.7501L31.3485 19.5001L20.899 13.2501V17.9376Z" fill="black"/>
</g>
</svg>
