<svg width="40" height="40" viewBox="0 0 40 40" fill="none" xmlns="http://www.w3.org/2000/svg">
<path d="M20 3.33337C17.8113 3.33337 15.6441 3.76447 13.622 4.60205C11.5999 5.43963 9.76257 6.66728 8.21493 8.21493C5.08932 11.3405 3.33337 15.5798 3.33337 20C3.33337 27.3667 8.11671 33.6167 14.7334 35.8334C15.5667 35.9667 15.8334 35.45 15.8334 35V32.1834C11.2167 33.1834 10.2334 29.95 10.2334 29.95C9.46671 28.0167 8.38338 27.5 8.38338 27.5C6.86671 26.4667 8.50004 26.5 8.50004 26.5C10.1667 26.6167 11.05 28.2167 11.05 28.2167C12.5 30.75 14.95 30 15.9 29.6C16.05 28.5167 16.4834 27.7834 16.95 27.3667C13.25 26.95 9.36671 25.5167 9.36671 19.1667C9.36671 17.3167 10 15.8334 11.0834 14.65C10.9167 14.2334 10.3334 12.5 11.25 10.25C11.25 10.25 12.65 9.80004 15.8334 11.95C17.15 11.5834 18.5834 11.4 20 11.4C21.4167 11.4 22.85 11.5834 24.1667 11.95C27.35 9.80004 28.75 10.25 28.75 10.25C29.6667 12.5 29.0834 14.2334 28.9167 14.65C30 15.8334 30.6334 17.3167 30.6334 19.1667C30.6334 25.5334 26.7334 26.9334 23.0167 27.35C23.6167 27.8667 24.1667 28.8834 24.1667 30.4334V35C24.1667 35.45 24.4334 35.9834 25.2834 35.8334C31.9 33.6 36.6667 27.3667 36.6667 20C36.6667 17.8113 36.2356 15.6441 35.398 13.622C34.5605 11.5999 33.3328 9.76257 31.7852 8.21493C30.2375 6.66728 28.4002 5.43963 26.3781 4.60205C24.356 3.76447 22.1887 3.33337 20 3.33337Z" fill="black"/>
</svg>
